<svg width="120" height="16" viewBox="0 0 120 16" fill="none" xmlns="http://www.w3.org/2000/svg">
<path d="M3.37373 14.0554H0.0252492V3.71199H3.47979C4.49326 3.71199 5.36363 3.91906 6.09091 4.3332C6.81818 4.74397 7.37542 5.33488 7.76262 6.10592C8.1532 6.8736 8.34848 7.79448 8.34848 8.86855C8.34848 9.94599 8.15151 10.8719 7.75757 11.6463C7.367 12.4207 6.80134 13.0167 6.0606 13.4342C5.31986 13.8483 4.42424 14.0554 3.37373 14.0554ZM1.58586 12.6918H3.28788C4.07575 12.6918 4.73064 12.5436 5.25252 12.2473C5.77441 11.9477 6.16498 11.515 6.42424 10.9494C6.6835 10.3803 6.81313 9.68673 6.81313 8.86855C6.81313 8.0571 6.6835 7.36855 6.42424 6.80289C6.16835 6.23724 5.78619 5.80794 5.27777 5.51502C4.76936 5.22209 4.13804 5.07562 3.38384 5.07562H1.58586V12.6918ZM13.1512 14.212C12.4239 14.212 11.7892 14.0453 11.2471 13.712C10.705 13.3787 10.2842 12.9123 9.98449 12.313C9.68483 11.7137 9.535 11.0133 9.535 10.212C9.535 9.40727 9.68483 8.70357 9.98449 8.10087C10.2842 7.49818 10.705 7.03017 11.2471 6.69683C11.7892 6.3635 12.4239 6.19683 13.1512 6.19683C13.8784 6.19683 14.5131 6.3635 15.0552 6.69683C15.5973 7.03017 16.0182 7.49818 16.3178 8.10087C16.6175 8.70357 16.7673 9.40727 16.7673 10.212C16.7673 11.0133 16.6175 11.7137 16.3178 12.313C16.0182 12.9123 15.5973 13.3787 15.0552 13.712C14.5131 14.0453 13.8784 14.212 13.1512 14.212ZM13.1562 12.9443C13.6276 12.9443 14.0182 12.8197 14.3279 12.5706C14.6377 12.3214 14.8666 11.9898 15.0148 11.5756C15.1663 11.1615 15.2421 10.7053 15.2421 10.2069C15.2421 9.71199 15.1663 9.25744 15.0148 8.8433C14.8666 8.42579 14.6377 8.09077 14.3279 7.83825C14.0182 7.58572 13.6276 7.45946 13.1562 7.45946C12.6815 7.45946 12.2875 7.58572 11.9744 7.83825C11.6646 8.09077 11.434 8.42579 11.2825 8.8433C11.1343 9.25744 11.0602 9.71199 11.0602 10.2069C11.0602 10.7053 11.1343 11.1615 11.2825 11.5756C11.434 11.9898 11.6646 12.3214 11.9744 12.5706C12.2875 12.8197 12.6815 12.9443 13.1562 12.9443ZM19.6142 14.0554L17.3314 6.29784H18.892L20.4122 11.9948H20.4879L22.0132 6.29784H23.5738L25.0889 11.9696H25.1647L26.6748 6.29784H28.2354L25.9576 14.0554H24.4172L22.8415 8.45441H22.7253L21.1495 14.0554H19.6142ZM30.8941 9.44936V14.0554H29.384V6.29784H30.8335V7.56047H30.9295C31.1079 7.1497 31.3874 6.81973 31.7679 6.57057C32.1517 6.32141 32.6349 6.19683 33.2174 6.19683C33.746 6.19683 34.209 6.30795 34.6063 6.53017C35.0036 6.74902 35.3116 7.07562 35.5305 7.50997C35.7494 7.94431 35.8588 8.48135 35.8588 9.12108V14.0554H34.3487V9.30289C34.3487 8.74061 34.2022 8.30121 33.9093 7.98471C33.6164 7.66485 33.214 7.50491 32.7022 7.50491C32.3521 7.50491 32.0406 7.58067 31.7679 7.73219C31.4985 7.8837 31.2847 8.10592 31.1265 8.39885C30.9716 8.68842 30.8941 9.03858 30.8941 9.44936ZM39.1097 3.71199V14.0554H37.5996V3.71199H39.1097ZM44.1245 14.212C43.3972 14.212 42.7625 14.0453 42.2205 13.712C41.6784 13.3787 41.2575 12.9123 40.9578 12.313C40.6582 11.7137 40.5083 11.0133 40.5083 10.212C40.5083 9.40727 40.6582 8.70357 40.9578 8.10087C41.2575 7.49818 41.6784 7.03017 42.2205 6.69683C42.7625 6.3635 43.3972 6.19683 44.1245 6.19683C44.8518 6.19683 45.4864 6.3635 46.0285 6.69683C46.5706 7.03017 46.9915 7.49818 47.2912 8.10087C47.5908 8.70357 47.7407 9.40727 47.7407 10.212C47.7407 11.0133 47.5908 11.7137 47.2912 12.313C46.9915 12.9123 46.5706 13.3787 46.0285 13.712C45.4864 14.0453 44.8518 14.212 44.1245 14.212ZM44.1295 12.9443C44.6009 12.9443 44.9915 12.8197 45.3013 12.5706C45.611 12.3214 45.84 11.9898 45.9881 11.5756C46.1396 11.1615 46.2154 10.7053 46.2154 10.2069C46.2154 9.71199 46.1396 9.25744 45.9881 8.8433C45.84 8.42579 45.611 8.09077 45.3013 7.83825C44.9915 7.58572 44.6009 7.45946 44.1295 7.45946C43.6548 7.45946 43.2609 7.58572 42.9477 7.83825C42.638 8.09077 42.4073 8.42579 42.2558 8.8433C42.1077 9.25744 42.0336 9.71199 42.0336 10.2069C42.0336 10.7053 42.1077 11.1615 42.2558 11.5756C42.4073 11.9898 42.638 12.3214 42.9477 12.5706C43.2609 12.8197 43.6548 12.9443 44.1295 12.9443ZM51.3994 14.2271C50.9078 14.2271 50.4634 14.1362 50.0661 13.9544C49.6688 13.7692 49.3539 13.5015 49.1216 13.1514C48.8927 12.8012 48.7782 12.3719 48.7782 11.8635C48.7782 11.4258 48.8624 11.0655 49.0307 10.7827C49.1991 10.4999 49.4263 10.276 49.7125 10.111C49.9987 9.94599 50.3186 9.82141 50.6721 9.73724C51.0257 9.65306 51.3859 9.58909 51.7529 9.54532C52.2176 9.49145 52.5947 9.44768 52.8842 9.41401C53.1738 9.37697 53.3842 9.31805 53.5156 9.23724C53.6469 9.15643 53.7125 9.02512 53.7125 8.8433V8.80794C53.7125 8.36687 53.5879 8.02512 53.3388 7.78269C53.093 7.54027 52.726 7.41906 52.2378 7.41906C51.7294 7.41906 51.3287 7.53185 51.0358 7.75744C50.7462 7.97966 50.5459 8.22714 50.4347 8.49986L49.0156 8.17663C49.1839 7.70525 49.4297 7.32478 49.7529 7.03522C50.0795 6.74229 50.4549 6.53017 50.8792 6.39885C51.3034 6.26417 51.7496 6.19683 52.2176 6.19683C52.5273 6.19683 52.8556 6.23387 53.2024 6.30795C53.5526 6.37865 53.8792 6.50997 54.1822 6.70188C54.4886 6.8938 54.7395 7.16821 54.9347 7.52512C55.13 7.87865 55.2277 8.33825 55.2277 8.9039V14.0554H53.7529V12.9948H53.6923C53.5947 13.1901 53.4482 13.382 53.2529 13.5706C53.0576 13.7591 52.8068 13.9157 52.5004 14.0403C52.194 14.1648 51.827 14.2271 51.3994 14.2271ZM51.7277 13.015C52.1452 13.015 52.5021 12.9325 52.7984 12.7675C53.098 12.6026 53.3253 12.3871 53.4802 12.1211C53.6384 11.8517 53.7176 11.5638 53.7176 11.2574V10.2574C53.6637 10.3113 53.5593 10.3618 53.4044 10.409C53.2529 10.4527 53.0795 10.4914 52.8842 10.5251C52.689 10.5554 52.4987 10.584 52.3135 10.611C52.1283 10.6345 51.9735 10.6547 51.8489 10.6716C51.556 10.7086 51.2883 10.7709 51.0459 10.8585C50.8068 10.946 50.6149 11.0723 50.4701 11.2372C50.3287 11.3989 50.258 11.6143 50.258 11.8837C50.258 12.2574 50.396 12.5403 50.6721 12.7322C50.9482 12.9207 51.3001 13.015 51.7277 13.015ZM59.8586 14.2069C59.2324 14.2069 58.6734 14.047 58.1819 13.7271C57.6937 13.4039 57.3098 12.9443 57.0304 12.3483C56.7543 11.749 56.6162 11.0302 56.6162 10.1918C56.6162 9.3534 56.7559 8.63623 57.0354 8.04027C57.3182 7.44431 57.7054 6.98808 58.197 6.67158C58.6886 6.35508 59.2458 6.19683 59.8687 6.19683C60.3502 6.19683 60.7374 6.27764 61.0304 6.43926C61.3266 6.59751 61.5556 6.78269 61.7172 6.99481C61.8822 7.20693 62.0101 7.3938 62.1011 7.55542H62.192V3.71199H63.7021V14.0554H62.2273V12.8483H62.1011C62.0101 13.0133 61.8788 13.2019 61.7071 13.414C61.5388 13.6261 61.3064 13.8113 61.0101 13.9696C60.7139 14.1278 60.33 14.2069 59.8586 14.2069ZM60.192 12.9191C60.6263 12.9191 60.9933 12.8046 61.293 12.5756C61.596 12.3433 61.825 12.0217 61.9798 11.611C62.1381 11.2002 62.2172 10.7221 62.2172 10.1766C62.2172 9.63791 62.1398 9.16653 61.9849 8.76249C61.83 8.35845 61.6027 8.04364 61.3031 7.81805C61.0034 7.59246 60.633 7.47966 60.192 7.47966C59.7374 7.47966 59.3586 7.59751 59.0556 7.8332C58.7526 8.06889 58.5236 8.39044 58.3687 8.79784C58.2172 9.20525 58.1415 9.66485 58.1415 10.1766C58.1415 10.6952 58.2189 11.1615 58.3738 11.5756C58.5287 11.9898 58.7576 12.318 59.0607 12.5605C59.3671 12.7995 59.7442 12.9191 60.192 12.9191ZM77.5221 3.71199V14.0554H76.0877L70.8301 6.46956H70.7342V14.0554H69.1736V3.71199H70.618L75.8807 11.3079H75.9766V3.71199H77.5221ZM82.6606 14.212C81.9333 14.212 81.2987 14.0453 80.7566 13.712C80.2145 13.3787 79.7936 12.9123 79.4939 12.313C79.1943 11.7137 79.0444 11.0133 79.0444 10.212C79.0444 9.40727 79.1943 8.70357 79.4939 8.10087C79.7936 7.49818 80.2145 7.03017 80.7566 6.69683C81.2987 6.3635 81.9333 6.19683 82.6606 6.19683C83.3879 6.19683 84.0226 6.3635 84.5646 6.69683C85.1067 7.03017 85.5276 7.49818 85.8273 8.10087C86.1269 8.70357 86.2768 9.40727 86.2768 10.212C86.2768 11.0133 86.1269 11.7137 85.8273 12.313C85.5276 12.9123 85.1067 13.3787 84.5646 13.712C84.0226 14.0453 83.3879 14.212 82.6606 14.212ZM82.6657 12.9443C83.137 12.9443 83.5276 12.8197 83.8374 12.5706C84.1471 12.3214 84.3761 11.9898 84.5242 11.5756C84.6758 11.1615 84.7515 10.7053 84.7515 10.2069C84.7515 9.71199 84.6758 9.25744 84.5242 8.8433C84.3761 8.42579 84.1471 8.09077 83.8374 7.83825C83.5276 7.58572 83.137 7.45946 82.6657 7.45946C82.1909 7.45946 81.797 7.58572 81.4838 7.83825C81.1741 8.09077 80.9434 8.42579 80.7919 8.8433C80.6438 9.25744 80.5697 9.71199 80.5697 10.2069C80.5697 10.7053 80.6438 11.1615 80.7919 11.5756C80.9434 11.9898 81.1741 12.3214 81.4838 12.5706C81.797 12.8197 82.1909 12.9443 82.6657 12.9443ZM89.1236 14.0554L86.8408 6.29784H88.4014L89.9216 11.9948H89.9974L91.5226 6.29784H93.0832L94.5984 11.9696H94.6741L96.1842 6.29784H97.7448L95.4671 14.0554H93.9267L92.3509 8.45441H92.2347L90.659 14.0554H89.1236ZM104.837 15.051H119.059V0.828753H104.837V15.051Z" fill="white"/>
</svg>
